<?xml version="1.0" encoding="utf-8"?>
<!-- Generator: Adobe Illustrator 25.2.0, SVG Export Plug-In . SVG Version: 6.00 Build 0)  -->
<svg version="1.1" id="Layer_1" xmlns="http://www.w3.org/2000/svg" xmlns:xlink="http://www.w3.org/1999/xlink" x="0px" y="0px"
	 viewBox="0 0 1920 1080" style="enable-background:new 0 0 1920 1080;" xml:space="preserve">
<style type="text/css">
	.st0{display:none;fill:#292D33;stroke:#000000;stroke-width:2.8505;stroke-miterlimit:10;}
	.st1{fill:#FFFFFF;}
	.st2{font-family:'GoogleSans-Regular';}
	.st3{font-size:61.1789px;}
	.st4{fill:#FCFCFC;}
	.st5{font-size:43.0092px;}
</style>
<rect x="0" class="st0" width="1929.27" height="1084.81"/>
<g>
	<g>
		<g>
			<text transform="matrix(1 0 0 1 524.0732 642.2989)"><tspan x="0" y="0" class="st1 st2 st3">Google </tspan><tspan x="216.45" y="0" class="st1 st2 st3">D</tspan><tspan x="259.15" y="0" class="st1 st2 st3">e</tspan><tspan x="292.98" y="0" class="st1 st2 st3">v</tspan><tspan x="324.12" y="0" class="st1 st2 st3">elo</tspan><tspan x="406.1" y="0" class="st1 st2 st3">p</tspan><tspan x="443.29" y="0" class="st1 st2 st3">er Student Clubs</tspan></text>
		</g>
	</g>
	<g>
		<g>
			<text transform="matrix(1 0 0 1 487.6599 714.9432)" class="st4 st2 st5">St. Joseph’s College of Engineering &amp; Technology</text>
		</g>
	</g>
	<g>
		<path class="st1" d="M936.85,502.96l-68.41-39.5c-3.07-1.77-6.42-2.61-9.72-2.61c-6.73,0-13.28,3.5-16.89,9.74
			c-5.38,9.32-2.19,21.23,7.13,26.61l68.41,39.5c3.07,1.77,6.42,2.61,9.72,2.61c6.73,0,13.28-3.49,16.89-9.74
			C949.35,520.26,946.16,508.34,936.85,502.96z"/>
		<path class="st1" d="M1073.27,463.47l-68.41-39.5c-3.07-1.77-6.42-2.61-9.72-2.61c-6.73,0-13.28,3.49-16.89,9.74
			c-5.38,9.32-2.19,21.23,7.13,26.61l68.41,39.5c3.07,1.77,6.42,2.61,9.72,2.61c6.73,0,13.28-3.49,16.89-9.74
			C1085.78,480.76,1082.59,468.85,1073.27,463.47z"/>
		<g>
			<path class="st1" d="M1051.08,501.9l-31.93-18.43l-33.77,19.5c-9.32,5.38-12.51,17.29-7.13,26.61
				c3.61,6.25,10.16,9.74,16.89,9.74c3.3,0,6.65-0.84,9.72-2.61l54.99-31.75C1056.78,504.49,1053.8,503.47,1051.08,501.9z"/>
		</g>
		<g>
			<path class="st1" d="M871.14,458.77l31.93,18.43l33.77-19.5c9.32-5.38,12.51-17.29,7.13-26.61c-5.38-9.32-17.29-12.51-26.61-7.13
				l-54.99,31.75C865.45,456.18,868.43,457.21,871.14,458.77z"/>
		</g>
	</g>
</g>
</svg>
