<?xml version="1.0" encoding="utf-8"?>
<!-- Generator: Adobe Illustrator 25.2.0, SVG Export Plug-In . SVG Version: 6.00 Build 0)  -->
<svg version="1.1" id="Layer_1" xmlns="http://www.w3.org/2000/svg" xmlns:xlink="http://www.w3.org/1999/xlink" x="0px" y="0px"
	 viewBox="0 0 1920 1080" style="enable-background:new 0 0 1920 1080;" xml:space="preserve">
<style type="text/css">
	.st0{display:none;fill:#292D33;stroke:#000000;stroke-width:2.8505;stroke-miterlimit:10;}
	.st1{fill:#FFFFFF;}
	.st2{font-family:'GoogleSans-Regular';}
	.st3{font-size:43.0092px;}
</style>
<rect x="0" class="st0" width="1929.27" height="1084.81"/>
<g>
	<g>
		<path class="st1" d="M499.21,548.4l-33.96-19.61c-1.52-0.88-3.19-1.3-4.83-1.3c-3.34,0-6.59,1.74-8.38,4.84
			c-2.67,4.63-1.09,10.54,3.54,13.21l33.96,19.61c1.52,0.88,3.19,1.3,4.83,1.3c3.34,0,6.59-1.73,8.38-4.84
			C505.42,556.98,503.84,551.07,499.21,548.4z"/>
		<path class="st1" d="M566.94,528.79l-33.96-19.61c-1.52-0.88-3.19-1.3-4.83-1.3c-3.34,0-6.59,1.73-8.38,4.84
			c-2.67,4.62-1.09,10.54,3.54,13.21l33.96,19.61c1.52,0.88,3.19,1.3,4.83,1.3c3.34,0,6.59-1.73,8.38-4.84
			C573.15,537.37,571.56,531.46,566.94,528.79z"/>
		<g>
			<path class="st1" d="M555.92,547.87l-15.85-9.15l-16.77,9.68c-4.63,2.67-6.21,8.58-3.54,13.21c1.79,3.1,5.04,4.84,8.38,4.84
				c1.64,0,3.3-0.42,4.83-1.3l27.3-15.76C558.75,549.16,557.27,548.65,555.92,547.87z"/>
		</g>
		<g>
			<path class="st1" d="M466.6,526.46l15.85,9.15l16.77-9.68c4.63-2.67,6.21-8.58,3.54-13.21c-2.67-4.62-8.58-6.21-13.21-3.54
				l-27.3,15.76C463.77,525.17,465.25,525.68,466.6,526.46z"/>
		</g>
	</g>
	<g>
		<g>
			<path class="st1" d="M610.19,556.21c-3.5-2-6.26-4.76-8.28-8.28c-2.02-3.52-3.04-7.4-3.04-11.66c0-4.25,1.01-8.14,3.04-11.66
				c2.03-3.52,4.79-6.28,8.28-8.28c3.5-2,7.31-3.01,11.44-3.01c3.23,0,6.27,0.57,9.11,1.72c2.84,1.14,5.18,2.76,7.02,4.85
				l-3.74,3.74c-1.39-1.72-3.18-3.04-5.37-3.96c-2.19-0.92-4.53-1.38-7.03-1.38c-3.07,0-5.94,0.75-8.62,2.24
				c-2.68,1.5-4.83,3.6-6.44,6.32c-1.62,2.72-2.42,5.86-2.42,9.42c0,3.56,0.81,6.7,2.42,9.42c1.62,2.72,3.76,4.83,6.44,6.32
				c2.68,1.5,5.56,2.24,8.62,2.24c2.95,0,5.41-0.46,7.39-1.38s3.71-2.14,5.19-3.65c1.06-1.14,1.92-2.54,2.58-4.17
				c0.65-1.64,1.04-3.41,1.17-5.34h-16.2v-4.85h21.11c0.21,1.15,0.31,2.21,0.31,3.19c0,2.7-0.43,5.33-1.29,7.89
				c-0.86,2.56-2.23,4.8-4.11,6.72c-4.13,4.38-9.51,6.56-16.14,6.56C617.51,559.22,613.69,558.22,610.19,556.21z"/>
			<path class="st1" d="M654.65,557.11c-2.37-1.41-4.22-3.36-5.55-5.83c-1.33-2.47-1.99-5.22-1.99-8.25c0-3.03,0.66-5.78,1.99-8.25
				c1.33-2.48,3.18-4.42,5.55-5.83c2.37-1.41,5.05-2.12,8.04-2.12s5.68,0.7,8.07,2.12c2.39,1.41,4.25,3.35,5.58,5.83
				c1.33,2.48,1.99,5.22,1.99,8.25c0,3.03-0.67,5.78-1.99,8.25c-1.33,2.48-3.19,4.42-5.58,5.83c-2.39,1.41-5.08,2.11-8.07,2.11
				S657.02,558.52,654.65,557.11z M667.84,553.09c1.6-0.94,2.87-2.28,3.84-4.02c0.96-1.74,1.44-3.75,1.44-6.04
				c0-2.29-0.48-4.3-1.44-6.04c-0.96-1.74-2.24-3.08-3.84-4.02c-1.59-0.94-3.31-1.41-5.15-1.41c-1.8,0-3.5,0.47-5.09,1.41
				c-1.59,0.94-2.87,2.28-3.83,4.02c-0.96,1.74-1.44,3.75-1.44,6.04c0,2.29,0.48,4.31,1.44,6.04c0.96,1.74,2.24,3.08,3.83,4.02
				c1.6,0.94,3.29,1.41,5.09,1.41C664.53,554.5,666.25,554.03,667.84,553.09z"/>
			<path class="st1" d="M689.44,557.11c-2.37-1.41-4.22-3.36-5.55-5.83c-1.33-2.47-1.99-5.22-1.99-8.25c0-3.03,0.66-5.78,1.99-8.25
				c1.33-2.48,3.18-4.42,5.55-5.83c2.37-1.41,5.05-2.12,8.04-2.12s5.68,0.7,8.07,2.12c2.39,1.41,4.25,3.35,5.58,5.83
				c1.33,2.48,1.99,5.22,1.99,8.25c0,3.03-0.67,5.78-1.99,8.25c-1.33,2.48-3.19,4.42-5.58,5.83c-2.39,1.41-5.08,2.11-8.07,2.11
				S691.81,558.52,689.44,557.11z M702.63,553.09c1.6-0.94,2.87-2.28,3.84-4.02c0.96-1.74,1.44-3.75,1.44-6.04
				c0-2.29-0.48-4.3-1.44-6.04c-0.96-1.74-2.24-3.08-3.84-4.02c-1.59-0.94-3.31-1.41-5.15-1.41c-1.8,0-3.5,0.47-5.09,1.41
				c-1.59,0.94-2.87,2.28-3.83,4.02c-0.96,1.74-1.44,3.75-1.44,6.04c0,2.29,0.48,4.31,1.44,6.04c0.96,1.74,2.24,3.08,3.83,4.02
				c1.6,0.94,3.29,1.41,5.09,1.41C699.32,554.5,701.04,554.03,702.63,553.09z"/>
			<path class="st1" d="M722.76,569.84c-2.33-1.76-3.91-3.8-4.73-6.14l4.85-2.03c0.61,1.8,1.71,3.26,3.28,4.39
				c1.57,1.12,3.45,1.69,5.62,1.69c3.23,0,5.71-0.94,7.45-2.81c1.74-1.88,2.61-4.5,2.61-7.86v-3.25h-0.25
				c-0.98,1.56-2.39,2.85-4.23,3.87c-1.84,1.02-3.93,1.53-6.26,1.53c-2.58,0-4.97-0.7-7.18-2.09c-2.21-1.39-3.97-3.32-5.28-5.79
				c-1.31-2.46-1.96-5.24-1.96-8.31c0-3.08,0.65-5.85,1.96-8.31c1.31-2.46,3.07-4.39,5.28-5.79c2.21-1.4,4.6-2.09,7.18-2.09
				c2.33,0,4.42,0.51,6.26,1.53c1.84,1.02,3.25,2.31,4.23,3.87h0.25v-4.42h4.97v29.21c0,3.35-0.66,6.2-1.96,8.53
				c-1.31,2.33-3.1,4.07-5.37,5.21c-2.27,1.14-4.84,1.72-7.7,1.72C728.1,572.47,725.09,571.6,722.76,569.84z M736.87,553.11
				c1.51-0.92,2.73-2.25,3.65-3.98c0.92-1.73,1.38-3.76,1.38-6.11c0-2.34-0.46-4.39-1.38-6.14c-0.92-1.75-2.14-3.07-3.65-3.98
				c-1.51-0.91-3.17-1.36-4.97-1.36c-1.8,0-3.46,0.46-4.97,1.39c-1.51,0.93-2.73,2.25-3.65,3.98c-0.92,1.73-1.38,3.76-1.38,6.11
				c0,2.35,0.46,4.38,1.38,6.11c0.92,1.73,2.14,3.05,3.65,3.98c1.51,0.93,3.17,1.39,4.97,1.39
				C733.7,554.5,735.36,554.03,736.87,553.11z"/>
			<path class="st1" d="M753.87,514.31h5.21v43.93h-5.21V514.31z"/>
			<path class="st1" d="M771.44,557.14c-2.31-1.39-4.12-3.31-5.43-5.77c-1.31-2.46-1.96-5.24-1.96-8.35c0-2.94,0.61-5.65,1.84-8.13
				c1.23-2.47,2.98-4.44,5.25-5.89c2.27-1.45,4.88-2.18,7.82-2.18c2.95,0,5.53,0.66,7.76,1.99c2.23,1.33,3.93,3.2,5.12,5.62
				c1.19,2.41,1.78,5.2,1.78,8.35c0,0.57-0.04,0.98-0.12,1.23h-24.18c0.08,2.29,0.63,4.22,1.66,5.8c1.02,1.58,2.3,2.75,3.84,3.53
				c1.53,0.78,3.12,1.17,4.75,1.17c3.85,0,6.81-1.88,8.9-5.65l4.6,2.21c-1.31,2.45-3.12,4.43-5.43,5.92
				c-2.31,1.49-5.08,2.24-8.31,2.24C776.39,559.22,773.76,558.53,771.44,557.14z M788.11,539.65c-0.08-1.22-0.43-2.45-1.04-3.68
				s-1.61-2.27-2.98-3.13c-1.37-0.86-3.12-1.29-5.25-1.29c-2.29,0-4.28,0.74-5.95,2.21c-1.68,1.47-2.74,3.44-3.19,5.89H788.11z"/>
			<path class="st1" d="M813.57,514.31h13.32c4.5,0,8.43,0.93,11.78,2.79c3.35,1.86,5.93,4.45,7.73,7.76
				c1.8,3.31,2.7,7.12,2.7,11.41c0,4.29-0.9,8.1-2.7,11.41c-1.8,3.31-4.38,5.9-7.73,7.76c-3.35,1.86-7.28,2.79-11.78,2.79h-13.32
				V514.31z M826.88,553.27c5.19,0,9.31-1.49,12.33-4.48c3.03-2.99,4.54-7.16,4.54-12.52c0-5.36-1.51-9.53-4.54-12.52
				s-7.14-4.48-12.33-4.48h-8.1v33.99H826.88z"/>
			<path class="st1" d="M860.91,557.14c-2.31-1.39-4.12-3.31-5.43-5.77c-1.31-2.46-1.96-5.24-1.96-8.35c0-2.94,0.61-5.65,1.84-8.13
				c1.23-2.47,2.98-4.44,5.25-5.89c2.27-1.45,4.88-2.18,7.82-2.18c2.94,0,5.53,0.66,7.76,1.99c2.23,1.33,3.94,3.2,5.12,5.62
				s1.78,5.2,1.78,8.35c0,0.57-0.04,0.98-0.12,1.23h-24.17c0.08,2.29,0.63,4.22,1.66,5.8c1.02,1.58,2.3,2.75,3.83,3.53
				c1.53,0.78,3.12,1.17,4.76,1.17c3.84,0,6.81-1.88,8.9-5.65l4.6,2.21c-1.31,2.45-3.12,4.43-5.43,5.92
				c-2.31,1.49-5.08,2.24-8.31,2.24C865.84,559.22,863.22,558.53,860.91,557.14z M877.56,539.65c-0.08-1.22-0.43-2.45-1.04-3.68
				s-1.6-2.27-2.98-3.13c-1.37-0.86-3.12-1.29-5.25-1.29c-2.29,0-4.28,0.74-5.95,2.21c-1.68,1.47-2.74,3.44-3.19,5.89H877.56z"/>
			<path class="st1" d="M884.31,527.81h5.65l9.33,24.3h0.12l9.45-24.3h5.52l-12.46,30.43h-5.28L884.31,527.81z"/>
			<path class="st1" d="M923.92,557.14c-2.31-1.39-4.12-3.31-5.43-5.77c-1.31-2.46-1.96-5.24-1.96-8.35c0-2.94,0.61-5.65,1.84-8.13
				c1.23-2.47,2.98-4.44,5.25-5.89c2.27-1.45,4.88-2.18,7.82-2.18c2.95,0,5.53,0.66,7.76,1.99c2.23,1.33,3.93,3.2,5.12,5.62
				c1.19,2.41,1.78,5.2,1.78,8.35c0,0.57-0.04,0.98-0.12,1.23H921.8c0.08,2.29,0.63,4.22,1.66,5.8c1.02,1.58,2.3,2.75,3.84,3.53
				c1.53,0.78,3.12,1.17,4.75,1.17c3.85,0,6.81-1.88,8.9-5.65l4.6,2.21c-1.31,2.45-3.12,4.43-5.43,5.92
				c-2.31,1.49-5.08,2.24-8.31,2.24C928.86,559.22,926.23,558.53,923.92,557.14z M940.58,539.65c-0.08-1.22-0.43-2.45-1.04-3.68
				s-1.61-2.27-2.98-3.13c-1.37-0.86-3.12-1.29-5.25-1.29c-2.29,0-4.28,0.74-5.95,2.21c-1.68,1.47-2.74,3.44-3.19,5.89H940.58z"/>
			<path class="st1" d="M951.38,514.31h5.22v43.93h-5.22V514.31z"/>
			<path class="st1" d="M969.11,557.11c-2.37-1.41-4.22-3.36-5.55-5.83c-1.33-2.47-1.99-5.22-1.99-8.25c0-3.03,0.66-5.78,1.99-8.25
				c1.33-2.48,3.18-4.42,5.55-5.83c2.37-1.41,5.05-2.12,8.04-2.12c2.99,0,5.68,0.7,8.07,2.12c2.39,1.41,4.25,3.35,5.58,5.83
				c1.33,2.48,1.99,5.22,1.99,8.25c0,3.03-0.67,5.78-1.99,8.25c-1.33,2.48-3.19,4.42-5.58,5.83c-2.39,1.41-5.08,2.11-8.07,2.11
				C974.16,559.22,971.48,558.52,969.11,557.11z M982.3,553.09c1.6-0.94,2.87-2.28,3.84-4.02c0.96-1.74,1.44-3.75,1.44-6.04
				c0-2.29-0.48-4.3-1.44-6.04c-0.96-1.74-2.24-3.08-3.84-4.02c-1.59-0.94-3.31-1.41-5.15-1.41c-1.8,0-3.5,0.47-5.09,1.41
				c-1.59,0.94-2.87,2.28-3.83,4.02c-0.96,1.74-1.44,3.75-1.44,6.04c0,2.29,0.48,4.31,1.44,6.04c0.96,1.74,2.24,3.08,3.83,4.02
				c1.6,0.94,3.29,1.41,5.09,1.41C978.99,554.5,980.71,554.03,982.3,553.09z"/>
			<path class="st1" d="M997.52,527.81h4.97v4.48h0.24c0.98-1.55,2.39-2.85,4.23-3.9c1.84-1.04,3.97-1.56,6.38-1.56
				c2.62,0,5.03,0.7,7.24,2.12c2.21,1.41,3.97,3.34,5.28,5.8c1.31,2.46,1.96,5.21,1.96,8.28c0,3.07-0.65,5.83-1.96,8.28
				c-1.31,2.46-3.07,4.39-5.28,5.8c-2.21,1.41-4.62,2.11-7.24,2.11c-2.42,0-4.55-0.52-6.41-1.56c-1.86-1.04-3.26-2.36-4.2-3.96
				h-0.24l0.24,4.23v13.56h-5.21V527.81z M1017.55,553.09c1.53-0.94,2.76-2.28,3.68-4.02c0.92-1.74,1.38-3.75,1.38-6.04
				c0-2.29-0.46-4.3-1.38-6.04c-0.92-1.74-2.15-3.08-3.68-4.02c-1.53-0.94-3.2-1.41-5-1.41s-3.47,0.46-5,1.38
				c-1.53,0.92-2.76,2.25-3.68,3.99c-0.92,1.74-1.38,3.77-1.38,6.1c0,2.29,0.46,4.32,1.38,6.08c0.92,1.76,2.15,3.1,3.68,4.02
				c1.53,0.92,3.2,1.38,5,1.38S1016.02,554.03,1017.55,553.09z"/>
			<path class="st1" d="M1040.01,557.14c-2.31-1.39-4.12-3.31-5.43-5.77c-1.31-2.46-1.96-5.24-1.96-8.35c0-2.94,0.61-5.65,1.84-8.13
				c1.23-2.47,2.98-4.44,5.25-5.89c2.27-1.45,4.88-2.18,7.82-2.18c2.95,0,5.53,0.66,7.76,1.99c2.23,1.33,3.93,3.2,5.12,5.62
				c1.19,2.41,1.78,5.2,1.78,8.35c0,0.57-0.04,0.98-0.12,1.23h-24.18c0.08,2.29,0.63,4.22,1.66,5.8c1.02,1.58,2.3,2.75,3.84,3.53
				s3.12,1.17,4.75,1.17c3.85,0,6.81-1.88,8.9-5.65l4.6,2.21c-1.31,2.45-3.12,4.43-5.43,5.92c-2.31,1.49-5.08,2.24-8.31,2.24
				C1044.95,559.22,1042.32,558.53,1040.01,557.14z M1056.67,539.65c-0.08-1.22-0.43-2.45-1.04-3.68s-1.61-2.27-2.98-3.13
				c-1.37-0.86-3.12-1.29-5.25-1.29c-2.29,0-4.28,0.74-5.95,2.21c-1.68,1.47-2.74,3.44-3.19,5.89H1056.67z"/>
			<path class="st1" d="M1067.47,527.81h4.97v4.97h0.25c0.57-1.68,1.75-3.09,3.53-4.23c1.78-1.14,3.55-1.72,5.31-1.72
				c1.27,0,2.46,0.2,3.56,0.61v5.58c-1.11-0.61-2.54-0.92-4.3-0.92c-1.43,0-2.77,0.42-4.02,1.26c-1.25,0.84-2.24,1.96-2.98,3.35
				c-0.74,1.39-1.11,2.91-1.11,4.55v16.98h-5.22V527.81z"/>
			<path class="st1" d="M1107.93,557.84c-2.06-0.92-3.89-2.27-5.46-4.05c-1.57-1.78-2.71-3.94-3.4-6.47l4.97-2.03
				c0.69,2.62,1.98,4.76,3.86,6.44c1.88,1.68,4.07,2.51,6.57,2.51c2.58,0,4.74-0.68,6.5-2.05c1.76-1.37,2.64-3.24,2.64-5.62
				c0-2.04-0.75-3.73-2.24-5.06c-1.49-1.33-3.94-2.57-7.33-3.71l-2.76-0.98c-3.11-1.1-5.65-2.56-7.61-4.36
				c-1.96-1.8-2.94-4.29-2.94-7.48c0-2.09,0.57-4.02,1.72-5.8c1.14-1.78,2.73-3.2,4.75-4.26s4.3-1.6,6.84-1.6
				c2.54,0,4.75,0.47,6.66,1.41c1.9,0.94,3.41,2.09,4.54,3.44s1.89,2.68,2.3,3.99l-4.85,2.09c-0.45-1.56-1.39-2.94-2.82-4.14
				c-1.43-1.21-3.33-1.81-5.71-1.81c-2.25,0-4.17,0.63-5.77,1.9c-1.59,1.27-2.39,2.86-2.39,4.79c0,1.72,0.67,3.12,2.02,4.2
				c1.35,1.08,3.4,2.1,6.14,3.04l2.82,0.98c3.72,1.35,6.64,3.04,8.74,5.06c2.11,2.02,3.16,4.77,3.16,8.25
				c0,2.82-0.73,5.19-2.18,7.12c-1.45,1.92-3.28,3.33-5.49,4.23c-2.21,0.9-4.5,1.35-6.87,1.35
				C1112.14,559.22,1110,558.76,1107.93,557.84z"/>
			<path class="st1" d="M1141.56,558.6c-1.04-0.42-1.93-0.98-2.67-1.69c-0.82-0.79-1.42-1.72-1.81-2.78
				c-0.39-1.06-0.58-2.32-0.58-3.78v-17.82h-5.4v-4.73h5.4v-9.08h5.15v9.08h7.48v4.73h-7.48v16.57c0,1.76,0.35,3.06,1.04,3.89
				c0.69,0.92,1.76,1.38,3.19,1.38c1.27,0,2.37-0.29,3.31-0.86v5.03c-0.66,0.24-1.28,0.42-1.87,0.52c-0.59,0.1-1.38,0.15-2.36,0.15
				C1143.74,559.22,1142.6,559.01,1141.56,558.6z"/>
			<path class="st1" d="M1157.27,555.97c-1.94-2.17-2.92-5.17-2.92-9.02v-19.14h5.21v18.29c0,5.6,2.52,8.41,7.55,8.41
				c1.68,0,3.18-0.47,4.51-1.41c1.33-0.94,2.35-2.17,3.07-3.68c0.72-1.51,1.07-3.11,1.07-4.79v-16.81h5.15v30.43h-4.91v-4.54h-0.24
				c-0.9,1.56-2.26,2.86-4.08,3.93s-3.77,1.59-5.86,1.59C1162.06,559.22,1159.21,558.14,1157.27,555.97z"/>
			<path class="st1" d="M1193.19,557.14c-2.21-1.39-3.97-3.32-5.28-5.8c-1.31-2.48-1.96-5.25-1.96-8.31c0-3.07,0.66-5.84,1.96-8.31
				c1.31-2.47,3.07-4.41,5.28-5.8c2.21-1.39,4.62-2.09,7.24-2.09c2.37,0,4.5,0.52,6.38,1.56c1.88,1.04,3.29,2.34,4.23,3.9h0.24
				l-0.24-4.17v-13.8h5.15v43.93h-4.91v-4.54h-0.24c-0.94,1.6-2.35,2.92-4.23,3.96c-1.88,1.04-4.01,1.56-6.38,1.56
				C1197.81,559.22,1195.4,558.53,1193.19,557.14z M1206.23,553.12c1.53-0.92,2.76-2.26,3.68-4.02s1.38-3.78,1.38-6.08
				c0-2.33-0.46-4.37-1.38-6.1c-0.92-1.74-2.15-3.07-3.68-3.99c-1.53-0.92-3.2-1.38-5-1.38c-1.8,0-3.47,0.47-5,1.41
				s-2.76,2.28-3.68,4.02c-0.92,1.74-1.38,3.75-1.38,6.04c0,2.29,0.46,4.31,1.38,6.04c0.92,1.74,2.15,3.08,3.68,4.02
				c1.53,0.94,3.2,1.41,5,1.41C1203.03,554.5,1204.7,554.04,1206.23,553.12z"/>
			<path class="st1" d="M1228.62,557.14c-2.31-1.39-4.12-3.31-5.43-5.77c-1.31-2.46-1.96-5.24-1.96-8.35c0-2.94,0.61-5.65,1.84-8.13
				c1.23-2.47,2.98-4.44,5.25-5.89c2.27-1.45,4.88-2.18,7.82-2.18c2.95,0,5.53,0.66,7.76,1.99c2.23,1.33,3.93,3.2,5.12,5.62
				c1.19,2.41,1.78,5.2,1.78,8.35c0,0.57-0.04,0.98-0.12,1.23h-24.18c0.08,2.29,0.63,4.22,1.66,5.8c1.02,1.58,2.3,2.75,3.84,3.53
				s3.12,1.17,4.75,1.17c3.85,0,6.81-1.88,8.9-5.65l4.6,2.21c-1.31,2.45-3.12,4.43-5.43,5.92c-2.31,1.49-5.08,2.24-8.31,2.24
				C1233.57,559.22,1230.94,558.53,1228.62,557.14z M1245.29,539.65c-0.08-1.22-0.43-2.45-1.04-3.68s-1.61-2.27-2.98-3.13
				c-1.37-0.86-3.12-1.29-5.25-1.29c-2.29,0-4.28,0.74-5.95,2.21c-1.68,1.47-2.74,3.44-3.19,5.89H1245.29z"/>
			<path class="st1" d="M1256.08,527.81h4.97v4.54h0.25c0.86-1.56,2.21-2.86,4.05-3.93c1.84-1.06,3.8-1.59,5.89-1.59
				c3.72,0,6.55,1.08,8.5,3.25c1.94,2.17,2.92,5.13,2.92,8.9v19.27h-5.15v-18.47c0-5.48-2.56-8.22-7.67-8.22
				c-1.64,0-3.11,0.47-4.42,1.41c-1.31,0.94-2.32,2.17-3.04,3.68c-0.72,1.51-1.07,3.11-1.07,4.79v16.81h-5.22V527.81z"/>
			<path class="st1" d="M1296.24,558.6c-1.04-0.42-1.93-0.98-2.67-1.69c-0.82-0.79-1.42-1.72-1.81-2.78
				c-0.39-1.06-0.59-2.32-0.59-3.78v-17.82h-5.4v-4.73h5.4v-9.08h5.15v9.08h7.48v4.73h-7.48v16.57c0,1.76,0.35,3.06,1.04,3.89
				c0.7,0.92,1.76,1.38,3.19,1.38c1.27,0,2.37-0.29,3.31-0.86v5.03c-0.66,0.24-1.28,0.42-1.87,0.52c-0.59,0.1-1.38,0.15-2.36,0.15
				C1298.42,559.22,1297.29,559.01,1296.24,558.6z"/>
			<path class="st1" d="M1331.74,556.21c-3.48-2-6.21-4.76-8.19-8.28c-1.98-3.52-2.98-7.4-2.98-11.66c0-4.25,0.99-8.14,2.98-11.66
				c1.98-3.52,4.72-6.28,8.19-8.28c3.47-2,7.32-3.01,11.53-3.01c3.31,0,6.33,0.62,9.05,1.87c2.72,1.25,5.06,3.02,7.02,5.31
				l-3.68,3.62c-1.64-2.01-3.47-3.48-5.49-4.42c-2.02-0.94-4.33-1.41-6.9-1.41c-3.15,0-6.05,0.75-8.71,2.24
				c-2.66,1.5-4.78,3.6-6.35,6.32c-1.58,2.72-2.36,5.86-2.36,9.42c0,3.56,0.79,6.7,2.36,9.42c1.57,2.72,3.69,4.83,6.35,6.32
				c2.66,1.5,5.56,2.24,8.71,2.24c5.36,0,9.9-2.19,13.62-6.56l3.74,3.68c-2.01,2.41-4.5,4.33-7.49,5.74
				c-2.99,1.41-6.28,2.11-9.88,2.11C1339.06,559.22,1335.21,558.22,1331.74,556.21z"/>
			<path class="st1" d="M1365.73,514.31h5.21v43.93h-5.21V514.31z"/>
			<path class="st1" d="M1380.61,555.97c-1.94-2.17-2.91-5.17-2.91-9.02v-19.14h5.21v18.29c0,5.6,2.51,8.41,7.55,8.41
				c1.68,0,3.18-0.47,4.51-1.41c1.33-0.94,2.35-2.17,3.07-3.68c0.72-1.51,1.07-3.11,1.07-4.79v-16.81h5.15v30.43h-4.91v-4.54h-0.25
				c-0.9,1.56-2.26,2.86-4.08,3.93c-1.82,1.06-3.77,1.59-5.86,1.59C1385.4,559.22,1382.55,558.14,1380.61,555.97z"/>
			<path class="st1" d="M1420.74,557.66c-1.86-1.04-3.26-2.36-4.2-3.96h-0.24v4.54h-4.97v-43.93h5.21v13.8l-0.24,4.17h0.24
				c0.98-1.55,2.39-2.85,4.23-3.9s3.97-1.56,6.38-1.56c2.62,0,5.03,0.7,7.24,2.12c2.21,1.41,3.97,3.34,5.28,5.8
				c1.31,2.46,1.96,5.21,1.96,8.28c0,3.07-0.66,5.83-1.96,8.28c-1.31,2.46-3.07,4.39-5.28,5.8c-2.21,1.41-4.62,2.11-7.24,2.11
				C1424.74,559.22,1422.6,558.7,1420.74,557.66z M1431.35,553.09c1.53-0.94,2.76-2.28,3.68-4.02c0.92-1.74,1.38-3.75,1.38-6.04
				c0-2.29-0.46-4.3-1.38-6.04c-0.92-1.74-2.15-3.08-3.68-4.02s-3.2-1.41-5-1.41c-1.8,0-3.47,0.46-5,1.38
				c-1.53,0.92-2.76,2.25-3.68,3.99c-0.92,1.74-1.38,3.77-1.38,6.1c0,2.29,0.46,4.32,1.38,6.08s2.15,3.1,3.68,4.02
				c1.53,0.92,3.2,1.38,5,1.38C1428.15,554.5,1429.82,554.03,1431.35,553.09z"/>
			<path class="st1" d="M1449.11,556.77c-2.25-1.64-3.83-3.66-4.72-6.08l4.6-2.02c0.82,1.92,1.97,3.39,3.47,4.42
				c1.49,1.02,3.12,1.53,4.88,1.53c1.96,0,3.59-0.43,4.88-1.29c1.29-0.86,1.93-1.9,1.93-3.13c0-1.19-0.48-2.17-1.44-2.94
				c-0.96-0.78-2.61-1.45-4.94-2.03l-4.17-1.04c-2.29-0.53-4.24-1.49-5.86-2.88c-1.61-1.39-2.42-3.23-2.42-5.52
				c0-1.88,0.54-3.5,1.63-4.85c1.08-1.35,2.53-2.37,4.33-3.07c1.8-0.7,3.76-1.04,5.89-1.04c2.62,0,5,0.6,7.15,1.81
				c2.15,1.21,3.67,2.91,4.57,5.12l-4.6,1.96c-0.66-1.47-1.65-2.56-2.98-3.25c-1.33-0.69-2.81-1.04-4.45-1.04
				c-1.59,0-3.04,0.39-4.33,1.17c-1.29,0.78-1.93,1.78-1.93,3.01c0,1.07,0.42,1.9,1.26,2.52c0.84,0.61,2.18,1.17,4.02,1.66l4.54,1.1
				c3.03,0.78,5.29,1.93,6.78,3.47c1.49,1.53,2.24,3.37,2.24,5.49c0,1.76-0.51,3.36-1.53,4.79c-1.02,1.43-2.46,2.56-4.3,3.38
				c-1.84,0.82-3.93,1.22-6.26,1.22C1454.11,559.22,1451.36,558.4,1449.11,556.77z"/>
		</g>
	</g>
</g>
<g>
	<g>
		<text transform="matrix(1 0 0 1 600.0023 621.7947)" class="st1 st2 st3">St. Joseph’s College of Engineering &amp; Technology</text>
	</g>
</g>
</svg>
